<?xml version="1.0" encoding="utf-8"?>
<!-- Generator: Adobe Illustrator 25.3.0, SVG Export Plug-In . SVG Version: 6.00 Build 0)  -->
<svg version="1.1" id="Capa_1" xmlns="http://www.w3.org/2000/svg" xmlns:xlink="http://www.w3.org/1999/xlink" x="0px" y="0px"
	 viewBox="0 0 150 150" style="enable-background:new 0 0 150 150;" xml:space="preserve">
<style type="text/css">
	.st0{fill:#FFFFFF;}
	.st1{fill:#00A9BD;}
</style>
<g>
	<path class="st0" d="M75.05,48.78C75.05,48.78,75.05,48.78,75.05,48.78c-1.89,0-3.67,0.75-5.02,2.11
		c-1.33,1.35-2.06,3.11-2.04,4.97c0.02,1.88,0.78,3.65,2.15,4.99c1.32,1.29,3.03,2,4.82,2c0.03,0,0.06,0,0.09,0
		c3.79-0.05,6.98-3.3,6.96-7.09C81.99,51.98,78.81,48.78,75.05,48.78z"/>
	<path class="st0" d="M31.32,90.42C31.31,90.42,31.31,90.42,31.32,90.42c-3.39,0-6.2,2.82-6.16,6.18c0.03,3.33,2.8,6.1,6.08,6.1
		c0.03,0,0.05,0,0.08,0c3.32-0.05,6.09-2.87,6.08-6.19C37.37,93.2,34.6,90.42,31.32,90.42z"/>
	<path class="st0" d="M52.34,48.78C52.34,48.78,52.34,48.78,52.34,48.78c-1.89,0-3.67,0.75-5.02,2.11
		c-1.33,1.35-2.06,3.11-2.04,4.97c0.02,1.88,0.78,3.65,2.15,4.99c1.32,1.29,3.03,1.99,4.82,1.99c0.03,0,0.06,0,0.09,0
		c3.79-0.05,6.98-3.3,6.96-7.09C59.29,51.98,56.1,48.78,52.34,48.78z"/>
	<path class="st0" d="M97.75,48.78C97.75,48.78,97.75,48.78,97.75,48.78c-1.89,0-3.67,0.75-5.02,2.11
		c-1.33,1.35-2.06,3.11-2.04,4.97c0.02,1.88,0.78,3.65,2.15,4.99c1.32,1.29,3.03,1.99,4.82,1.99c0.03,0,0.06,0,0.09,0
		c3.79-0.05,6.98-3.3,6.96-7.09C104.7,51.98,101.51,48.78,97.75,48.78z"/>
	<path class="st0" d="M136.19,58.73c-2.22,0.05-4.44,0.01-6.65,0.02c-2.12,0-2.73,0.62-2.73,2.71c0,1.76-0.08,3.53,0.03,5.28
		c0.08,1.2-0.23,2.12-1.17,2.85c-0.08,0.07-4.38,4.35-6.56,6.53c-0.83,0-1.74,0.01-2.75,0.01c3.83-5.56,6.08-12.28,6.08-19.53
		c0-19.01-15.47-34.48-34.48-34.48H62.05c-19.01,0-34.48,15.47-34.48,34.48c0,7.24,2.25,13.97,6.08,19.53c-1,0-1.91-0.01-2.75-0.01
		c-2.18-2.17-6.48-6.46-6.56-6.53c-0.93-0.73-1.24-1.65-1.17-2.85c0.11-1.75,0.03-3.52,0.03-5.28c0-2.09-0.62-2.7-2.73-2.71
		c-2.22-0.01-4.44,0.04-6.65-0.02C12.59,58.7,11.6,59,11,60.14c0,3.16,0,6.32,0,9.48c0.57,1.14,1.5,1.53,2.76,1.49
		c1.94-0.07,3.89-0.04,5.83,0c0.36,0.01,0.81,0.13,1.05,0.36c0.59,0.58,2.58,2.58,4.75,4.76c-2.01,0.52-3.8,1.44-5.33,2.8
		c-2.65,2.36-4.08,5.8-4.2,9.36c-0.11,3.22-0.06,6.45-0.08,9.67c-0.01,2.15-0.15,4.31,0.06,6.44c0.2,1.96,0.8,3.89,1.22,5.83
		c0.1-0.01,0.19-0.02,0.29-0.03c-0.44,0.29-0.91,0.54-1.31,0.88c-1.24,1.06-1.63,2.54-1.11,4.04c0.51,1.47,1.76,2.36,3.43,2.42
		c0.54,0.02,1.09,0.01,1.64,0.01c0.39,0,0.79,0,1.25,0c0.29,0,0.53,0.24,0.53,0.53c-0.02,1.33-0.08,2.62,0.04,3.89
		c0.09,1.06,0.29,2.18,0.78,3.11c0.87,1.66,2.44,2.43,4.31,2.45c3.82,0.03,7.63,0.06,11.45-0.01c3.06-0.06,5.05-2.16,5.11-5.23
		c0.03-1.36,0.01-2.71,0.01-4.13c0-0.29,0.24-0.53,0.53-0.53H74.7c0.2,0,0.4,0,0.6,0h30.71c0.29,0,0.53,0.24,0.53,0.53
		c0,1.41-0.02,2.77,0.01,4.13c0.06,3.07,2.05,5.17,5.11,5.23c3.81,0.07,7.63,0.03,11.45,0.01c1.87-0.01,3.44-0.78,4.31-2.45
		c0.48-0.92,0.68-2.05,0.78-3.11c0.11-1.27,0.05-2.56,0.04-3.89c0-0.29,0.24-0.53,0.53-0.53c0.46,0,0.85,0,1.25,0
		c0.55,0,1.09,0.01,1.64-0.01c1.68-0.06,2.93-0.95,3.43-2.42c0.52-1.5,0.13-2.98-1.11-4.04c-0.4-0.34-0.87-0.59-1.31-0.88
		c0.1,0.01,0.19,0.02,0.29,0.03c0.42-1.94,1.02-3.86,1.22-5.83c0.22-2.13,0.08-4.29,0.06-6.44c-0.02-3.22,0.03-6.45-0.08-9.67
		c-0.12-3.55-1.55-6.99-4.2-9.36c-1.53-1.36-3.32-2.28-5.33-2.8c2.17-2.18,4.16-4.17,4.75-4.76c0.24-0.24,0.69-0.36,1.05-0.36
		c1.94-0.03,3.89-0.07,5.83,0c1.26,0.04,2.19-0.35,2.76-1.49c0-3.16,0-6.32,0-9.48C138.4,59,137.41,58.7,136.19,58.73z
		 M38.15,103.34c-1.83,1.86-4.24,2.9-6.8,2.94c-0.04,0-0.09,0-0.13,0c-2.54,0-4.96-1.01-6.79-2.85c-1.82-1.83-2.84-4.24-2.87-6.79
		c-0.03-2.58,0.97-5.02,2.82-6.88c1.86-1.88,4.32-2.91,6.93-2.91c0,0,0,0,0,0c0,0,0,0,0,0c2.55,0,4.96,1.01,6.79,2.85
		c1.83,1.83,2.84,4.25,2.85,6.79C40.97,99.05,39.97,101.48,38.15,103.34z M106.09,76.17C97.25,76.2,86.15,76.25,75,76.31
		c-11.15-0.05-22.25-0.11-31.09-0.14c-5.09-4.85-8.29-11.83-8.29-19.57c0-14.63,11.43-26.53,25.48-26.53h27.8
		c14.05,0,25.48,11.9,25.48,26.53C114.38,64.34,111.18,71.31,106.09,76.17z M127.39,96.49c0.01,2.56-0.99,4.99-2.81,6.85
		c-1.83,1.86-4.24,2.9-6.8,2.94c-0.04,0-0.09,0-0.13,0c-2.54,0-4.96-1.01-6.79-2.85c-1.82-1.83-2.84-4.24-2.87-6.79
		c-0.03-2.58,0.97-5.02,2.82-6.88c1.86-1.88,4.32-2.91,6.93-2.91c0,0,0,0,0,0c0,0,0,0,0,0c2.55,0,4.96,1.01,6.79,2.85
		C126.36,91.53,127.37,93.94,127.39,96.49z"/>
	<path class="st0" d="M117.74,90.42C117.74,90.42,117.74,90.42,117.74,90.42c-3.39,0-6.2,2.82-6.16,6.18c0.03,3.33,2.8,6.1,6.07,6.1
		c0.03,0,0.05,0,0.08,0c3.32-0.05,6.09-2.87,6.08-6.19C123.79,93.2,121.02,90.42,117.74,90.42z"/>
</g>
<g>
	<polygon class="st1" points="46.73,92.24 51.1,92.24 51.1,103.77 55.01,103.77 55.01,92.24 59.38,92.24 59.38,89.11 46.73,89.11 	
		"/>
	<path class="st1" d="M73.87,89.11h-3.78v8.63c0,1.04-0.23,1.85-0.7,2.42c-0.47,0.57-1.13,0.85-2,0.85c-0.88,0-1.55-0.28-2.03-0.84
		c-0.47-0.56-0.71-1.37-0.71-2.43v-8.63h-3.77v8.48c0,2.09,0.55,3.67,1.65,4.75c1.1,1.08,2.72,1.62,4.86,1.62
		c2.1,0,3.71-0.55,4.83-1.64c1.12-1.09,1.68-2.67,1.68-4.73v-5.35h4.34v11.53h3.91V92.24h4.37v-3.13H73.9H73.87z"/>
	<path class="st1" d="M97.22,89.11v8.63c0,1.04-0.23,1.85-0.7,2.42c-0.47,0.57-1.13,0.85-2,0.85c-0.88,0-1.55-0.28-2.03-0.84
		c-0.47-0.56-0.71-1.37-0.71-2.43v-8.63h-3.77v8.48c0,2.09,0.55,3.67,1.65,4.75c1.1,1.08,2.72,1.62,4.86,1.62
		c2.1,0,3.71-0.55,4.83-1.64c1.12-1.09,1.68-2.67,1.68-4.73v-8.48H97.22z"/>
</g>
</svg>
